<?xml version="1.0" encoding="utf-8"?>
<!-- Generator: Adobe Illustrator 19.0.0, SVG Export Plug-In . SVG Version: 6.00 Build 0)  -->
<svg version="1.1" id="Layer_1" xmlns="http://www.w3.org/2000/svg" xmlns:xlink="http://www.w3.org/1999/xlink" x="0px" y="0px"
	 viewBox="-281 404.9 128.8 32" style="enable-background:new -281 404.9 128.8 32;" xml:space="preserve">
<g id="Outline_Color_copy_2">
	<path d="M-253,405.9c1.7,0,3,1.3,3,3v24c0,1.7-1.3,3-3,3h-24c-1.7,0-3-1.3-3-3v-24c0-1.7,1.3-3,3-3H-253 M-253,404.9h-24
		c-2.2,0-4,1.8-4,4v24c0,2.2,1.8,4,4,4h24c2.2,0,4-1.8,4-4v-24C-249,406.7-250.8,404.9-253,404.9L-253,404.9z"/>
	<path d="M-262.7,413.5c-1.7,0.6-2.7,2.2-2.6,3.9l0,0.7l-0.7-0.1c-2.4-0.3-4.5-1.4-6.3-3.1l-0.9-0.9l-0.2,0.6c-0.5,1.4-0.2,3,0.8,4
		c0.5,0.6,0.4,0.6-0.5,0.3c-0.3-0.1-0.6-0.2-0.6-0.1c-0.1,0.1,0.2,1.3,0.5,1.8c0.3,0.7,1.1,1.3,1.8,1.7l0.7,0.3l-0.8,0
		c-0.7,0-0.8,0-0.7,0.3c0.3,0.9,1.3,1.8,2.5,2.2l0.8,0.3l-0.7,0.4c-1.1,0.6-2.3,1-3.6,1c-0.6,0-1.1,0.1-1.1,0.1
		c0,0.1,1.6,0.9,2.6,1.2c2.8,0.9,6.2,0.5,8.7-1c1.8-1.1,3.6-3.2,4.4-5.2c0.5-1.1,0.9-3.1,0.9-4c0-0.6,0-0.7,0.8-1.4
		c0.4-0.4,0.9-0.9,0.9-1c0.1-0.3,0.1-0.3-0.6,0c-1.1,0.4-1.3,0.4-0.7-0.3c0.4-0.4,0.9-1.2,0.9-1.4c0,0-0.2,0-0.4,0.1
		c-0.2,0.1-0.8,0.3-1.2,0.5l-0.7,0.2l-0.7-0.4c-0.4-0.2-0.9-0.5-1.1-0.6C-261,413.2-262.1,413.2-262.7,413.5z"/>
</g>
<g id="Outline_Color_copy_2_1_">
	<path d="M-205,405.9c1.7,0,3,1.3,3,3v24c0,1.7-1.3,3-3,3h-24c-1.7,0-3-1.3-3-3v-24c0-1.7,1.3-3,3-3H-205 M-205,404.9h-24
		c-2.2,0-4,1.8-4,4v24c0,2.2,1.8,4,4,4h24c2.2,0,4-1.8,4-4v-24C-201,406.7-202.8,404.9-205,404.9L-205,404.9z"/>
	<path d="M-219.4,430.2h3.8v-9.3h2.6l0.3-3.2h-2.9l0-1.6c0-0.8,0.1-1.3,1.3-1.3h1.6v-3.2h-2.6c-3.1,0-4.1,1.5-4.1,4.2v1.9h-1.9v3.2
		h1.9V430.2z"/>
</g>
<g id="Outline_Color_copy_2_2_">
	<path d="M-156.2,405.9c1.7,0,3,1.3,3,3v24c0,1.7-1.3,3-3,3h-24c-1.7,0-3-1.3-3-3v-24c0-1.7,1.3-3,3-3H-156.2 M-156.2,404.9h-24
		c-2.2,0-4,1.8-4,4v24c0,2.2,1.8,4,4,4h24c2.2,0,4-1.8,4-4v-24C-152.2,406.7-154,404.9-156.2,404.9L-156.2,404.9z"/>
</g>
<path id="VK" d="M-167.5,427.1c0.7,0,0.7-1,0.7-1.4c0-0.7,0.7-1.4,1.4-1.4s1.9,1.2,2.8,2.1c0.7,0.7,0.7,0.7,1.4,0.7s2.1,0,2.1,0
	s1.4-0.1,1.4-1.4c0-0.4-0.5-1.2-2.1-2.8c-1.4-1.4-2.1-0.7,0-3.4c1.3-1.7,2.2-3.2,2-3.7c-0.2-0.4-3.7-1.1-4.1-0.5
	c-1.4,2.1-1.6,2.6-2.1,3.4c-0.7,1.4-0.8,2.1-1.4,2.1c-0.6,0-0.7-1.3-0.7-2.1c0-2.3,0.3-3.9-0.7-4.1c0,0-1.4,0-2.1,0
	c-1.1,0-2.1,0.7-2.1,0.7s-0.9,0.7-0.7,0.7c0.2,0,1.4-0.3,1.4,0.7c0,0.7,0,1.4,0,1.4s0,2.8-0.7,2.8c-0.7,0-2.1-2.8-3.4-4.8
	c-0.5-0.8-0.7-0.7-1.4-0.7c-0.7,0-1.4,0-2.1,0c-0.7,0-0.8,0.4-0.7,0.7c1.4,3.4,2.4,5.6,5,8.3c2.4,2.5,4,2.6,5.3,2.7
	C-167.8,427.1-168.1,427.1-167.5,427.1z"/>
</svg>
